# AST/ASF file generated using VICON BodyLanguage
# -----------------------------------------------
:version 1.10
:name VICON
:units
  mass 1.0
  length 0.45
  angle deg
:documentation
   .ast/.asf automatically generated from VICON data using
   VICON BodyBuilder and BodyLanguage model FoxedUp or BRILLIANT.MOD
:root
   order TX TY TZ RX RY RZ
   axis XYZ
   position 0 0 0  
   orientation 0 0 0 
:bonedata
  begin
     id 1 
     name lhipjoint
     direction 0.756833 -0.6125 0.228138 
     length 2.53827 
     axis 0 0 0  XYZ
  end
  begin
     id 2 
     name lfemur
     direction 0.34202 -0.939693 0  
     length 6.51821  
     axis 0 0 20  XYZ
    dof rx ry rz
    limits (-160.0 20.0)
           (-70.0 70.0)
           (-60.0 70.0)
  end
  begin
     id 3 
     name ltibia
     direction 0.34202 -0.939693 0   
     length 6.99902   
     axis 0 0 20   XYZ
    dof rx
    limits (-10.0 170.0)
  end
  begin
     id 4 
     name lfoot
     direction 0.0951515 -0.261427 0.960522   
     length 1.92102   
     axis -90 7.62852e-016 20   XYZ
    dof rx rz
    limits (-45.0 90.0)
           (-70.0 20.0)
  end
  begin
     id 5 
     name ltoes
     direction 1.53539e-011 -4.21781e-011 1   
     length 0.964376   
     axis -90 7.62852e-016 20   XYZ
    dof rx
    limits (-90.0 20.0)
  end
  begin
     id 6 
     name rhipjoint
     direction -0.752153 -0.617542 0.230017   
     length 2.51754  
     axis 0 0 0  XYZ 
  end
  begin
     id 7 
     name rfemur
     direction -0.34202 -0.939693 0   
     length 6.82377   
     axis 0 0 -20   XYZ
    dof rx ry rz
    limits (-160.0 20.0)
           (-70.0 70.0)
           (-70.0 60.0)
  end
  begin
     id 8 
     name rtibia
     direction -0.34202 -0.939693 0   
     length 6.98689   
     axis 0 0 -20   XYZ
    dof rx
    limits (-10.0 170.0)
 end
 begin
     id 9 
     name rfoot
     direction -0.0900426 -0.24739 0.964723   
     length 2.03215  
     axis -90 -7.62852e-016 -20   XYZ
    dof rx rz
    limits (-45.0 90.0)
           (-20.0 70.0)
  end
  begin
     id 10 
     name rtoes
     direction -1.53466e-011 -4.22206e-011 1   
     length 1.0197   
     axis -90 -7.62852e-016 -20   XYZ
    dof rx
    limits (-90.0 20.0)
  end
  begin
     id 11 
     name lowerback
     direction 0.0184183 0.995705 -0.0907278   
     length 2.019   
     axis 0 0 0   XYZ
    dof rx ry rz
    limits (-20.0 45.0)
           (-30.0 30.0)
           (-30.0 30.0)
  end
  begin
     id 12 
     name upperback
     direction 0.00281055 0.998777 0.0493607   
     length 1.99623   
     axis 0 0 0   XYZ
    dof rx ry rz
    limits (-20.0 45.0)
           (-30.0 30.0)
           (-30.0 30.0)
  end
  begin
     id 13 
     name thorax
     direction -0.00665507 0.995706 0.092331   
     length 2.02811   
     axis 0 0 0   XYZ
    dof rx ry rz
    limits (-20.0 45.0)
           (-30.0 30.0)
           (-30.0 30.0)
  end
  begin
     id 14 
     name lowerneck
     direction -0.0960965 0.994358 0.0449225   
     length 1.71265   
     axis 0 0 0   XYZ
    dof rx ry rz
    limits (-20.0 45.0)
           (-30.0 30.0)
           (-30.0 30.0)
  end
  begin
     id 15 
     name upperneck
     direction 0.13642 0.985357 -0.102278   
     length 1.73016   
     axis 0 0 0   XYZ
    dof rx ry rz
    limits (-20.0 45.0)
           (-30.0 30.0)
           (-30.0 30.0)
  end
  begin
     id 16
     name head
     direction 0.0556079 0.997632 -0.040479  
     length 1.74275  
     axis 0 0 0   XYZ
    dof rx ry rz
    limits (-20.0 45.0)
           (-30.0 30.0)
           (-30.0 30.0)
  end
  begin
     id 17 
     name lclavicle
     direction 0.90877 0.417247 -0.00652364  
     length 3.25514  
     axis 0 0 0   XYZ
    dof ry rz
    limits (-20.0 10.0)
           (0.0 20.0)
  end
  begin
     id 18 
     name lhumerus
     direction 1 -4.48949e-011 8.31417e-028   
     length 4.84834   
     axis 180 -30 -90   XYZ
    dof rx ry rz
    limits (-60.0 90.0)
           (-90.0 90.0)
           (-90.0 90.0)
  end
  begin
     id 19
     name lradius
     direction 1 -4.48984e-011 3.45616e-027   
     length 2.99713   
     axis 180 -30 -90   XYZ
    dof rx
    limits (-10.0 170.0)
  end
  begin
     id 20
     name lwrist
     direction 1 -4.4891e-011 4.0479e-027   
     length 1.49857   
     axis -1.61768e-015 90 90   XYZ
    dof ry
    limits (-180.0 0.0)
 end
  begin
     id 21 
     name lhand
     direction 1 -4.49025e-011 8.0958e-027   
     length 0.693987   
     axis -5.16581e-015 90 90   XYZ
    dof rx rz
    limits (-90.0 90.0)
           (-45.0 45.0)
  end
  begin
     id 22 
     name lfingers
     direction 1 -4.4888e-011 1.61916e-026   
     length 0.55951   
     axis -1.03316e-014 90 90   XYZ
    dof rx
    limits (0.0 90.0)
  end
  begin
     id 23
     name lthumb
     direction 0.707107 -6.3493e-011 0.707107   
     length 0.803348   
     axis -90 45 2.85299e-015   XYZ
    dof rx rz
    limits (-45.0 45.0)
           (-45.0 45.0)
  end
  begin
     id 24 
     name rclavicle
     direction -0.906655 0.41906 0.0486307   
     length 3.3311  
     axis 0 0 0   XYZ 
    dof ry rz
    limits (-10.0 20.0)
           (-20.0 0.0)
  end
  begin
     id 25 
     name rhumerus
     direction -1 -4.48959e-011 6.37764e-018  
     length 4.93457   
     axis 180 30 90   XYZ
    dof rx ry rz
    limits (-90.0 60.0)
           (-90.0 90.0)
           (-90.0 90.0)
  end
  begin
     id 26 
     name rradius
     direction -1 -4.48957e-011 2.20847e-027   
     length 3.3443   
     axis 180 30 90   XYZ
    dof rx
    limits (-10.0 170.0)
  end
  begin
     id 27 
     name rwrist
     direction -1 -4.49008e-011 4.0479e-027   
     length 1.67215   
     axis -1.61768e-015 -90 -90   XYZ
    dof ry
    limits (-180.0 0.0)
  end
  begin
     id 28
     name rhand
     direction -1 -4.49013e-011 8.0958e-027   
     length 0.677363   
     axis -5.16581e-015 -90 -90   XYZ
    dof rx rz
    limits (-90.0 90.0)
           (-45.0 45.0)
  end
  begin
     id 29
     name rfingers
     direction -1 -4.48832e-011 1.61916e-026   
     length 0.546107   
     axis -1.03316e-014 -90 -90   XYZ
    dof rx
    limits (0.0 90.0)
  end
  begin
     id 30
     name rthumb
     direction -0.707107 -6.34895e-011 0.707107   
     length 0.784104   
     axis -90 -45 -2.85299e-015   XYZ
    dof rx rz
    limits (-45.0 45.0)
           (-45.0 45.0)
  end
:hierarchy
  begin
    root lhipjoint rhipjoint lowerback
    lhipjoint lfemur
    lfemur ltibia
    ltibia lfoot
    lfoot ltoes
    rhipjoint rfemur
    rfemur rtibia
    rtibia rfoot
    rfoot rtoes
    lowerback upperback
    upperback thorax
    thorax lowerneck lclavicle rclavicle
    lowerneck upperneck
    upperneck head
    lclavicle lhumerus
    lhumerus lradius
    lradius lwrist
    lwrist lhand lthumb
    lhand lfingers
    rclavicle rhumerus
    rhumerus rradius
    rradius rwrist
    rwrist rhand rthumb
    rhand rfingers
  end

#!OML:ASF H:\Terrain\Patient Classification 1\junglegym\FridayTest\junglegym.ASF
:FULLY-SPECIFIED
:DEGREES
340
root -19.9943 19.3657 0.25382 77.7135 -83.8869 -128.581
lowerback 7.3205 0.471248 5.03525
upperback -2.0562 1.17659 1.20873
thorax -6.19541 0.405473 -1.71008
lowerneck 17.582 2.21018 -14.8242
upperneck 31.0846 -4.60989 13.3019
head 7.43189 -4.47088 7.08722
rclavicle -1.31198e-014 5.96354e-015
rhumerus 89.3078 -32.1062 -51.5097
rradius 45.4899
rwrist -8.36068
rhand 3.76118 14.866
rfingers 7.12502
rthumb 29.1877 -12.8653
lclavicle -1.31198e-014 5.96354e-015
lhumerus 97.536 23.534 52.156
lradius 42.179
lwrist -14.1318
lhand 10.5503 28.4911
lfingers 7.12502
lthumb 35.6481 54.8933
rfemur -20.7059 8.1688 30.2943
rtibia 35.812
rfoot 4.12377 -6.97693
rtoes -12.7109
lfemur -25.1992 -5.63796 -17.9525
ltibia 34.9397
lfoot 6.09174 -1.20609
ltoes -45.9845
341
root -20.0822 19.2986 0.248419 78.1813 -83.5352 -129.103
lowerback 7.4067 0.451374 5.288
upperback -2.15503 1.18858 1.31515
thorax -6.3476 0.397349 -1.74306
lowerneck 17.7237 2.27905 -15.0587
upperneck 31.3807 -4.66548 13.378
head 7.53411 -4.55843 7.16789
rclavicle 2.70347e-014 -2.94201e-014
rhumerus 89.4516 -32.2894 -51.0007
rradius 44.7451
rwrist -8.50257
rhand 3.07959 14.856
rfingers 7.12502
rthumb 28.5366 -12.9865
lclavicle 2.70347e-014 -2.94201e-014
lhumerus 95.9512 24.2641 51.2591
lradius 43.0167
lwrist -14.0617
lhand 10.6721 27.4925
lfingers 7.12502
lthumb 35.7636 53.8667
rfemur -19.7933 4.59191 31.4298
rtibia 35.4019
rfoot 5.06902 -0.289718
rtoes -52.3873
lfemur -25.3747 -5.09941 -17.8791
ltibia 36.1477
lfoot 5.89265 -1.69303
ltoes -45.6835
342
root -20.1592 19.2341 0.246353 78.383 -82.7092 -129.404
lowerback 7.47745 0.368388 6.01177
upperback -2.24081 1.16888 1.60133
thorax -6.47738 0.356874 -1.84587
lowerneck 17.767 2.20973 -15.127
upperneck 32.071 -4.81917 12.8452
head 7.81589 -4.7311 6.99621
rclavicle -3.97569e-015 2.38542e-014
rhumerus 88.7365 -32.8056 -49.9628
rradius 44.6697
rwrist -9.34817
rhand 2.79295 14.8182
rfingers 7.12502
rthumb 28.2627 -13.07
lclavicle -3.97569e-015 2.38542e-014
lhumerus 94.0865 25.0458 50.2447
lradius 44.0487
lwrist -13.3259
lhand 10.646 27.3519
lfingers 7.12502
lthumb 35.7388 53.7321
rfemur -18.8484 2.28486 32.786
rtibia 35.0645
rfoot 2.8644 2.01987
rtoes -55.3965
lfemur -25.4635 -4.81266 -17.2824
ltibia 37.31
lfoot 5.70739 -2.19849
ltoes -45.2845
343
root -20.2197 19.18 0.243181 77.7267 -82.2409 -128.578
lowerback 7.17865 0.313731 6.28502
upperback -2.37361 1.11238 1.83078
thorax -6.45298 0.318595 -1.74661
lowerneck 17.6344 2.19319 -15.0795
upperneck 32.6566 -4.83152 12.4462
head 8.05803 -4.79078 6.85009
rclavicle -1.43125e-014 -4.09496e-014
rhumerus 88.8131 -32.4709 -49.735
rradius 44.0433
rwrist -9.22031
rhand 2.3749 14.7328
rfingers 7.12502
rthumb 27.8631 -13.2208
lclavicle -1.43125e-014 -4.09496e-014
lhumerus 93.4383 25.4429 49.7837
lradius 44.0762
lwrist -12.8634
lhand 10.6449 27.606
lfingers 7.12502
lthumb 35.7377 53.9865
rfemur -18.2683 0.766264 33.5003
rtibia 34.831
rfoot 1.00682 2.68679
rtoes -55.038
lfemur -25.702 -4.54861 -17.0696
ltibia 38.3671
lfoot 4.9804 -1.91943
ltoes -44.8016
344
root -20.2604 19.1204 0.230989 76.9263 -82.7993 -127.378
lowerback 6.95981 0.4367 5.65941
upperback -2.68149 1.2036 1.59143
thorax -6.6509 0.375185 -1.65754
lowerneck 18.2375 2.21843 -14.8401
upperneck 32.6693 -4.92465 12.4788
head 7.98575 -4.85494 6.82473
rclavicle -2.5842e-014 5.88403e-014
rhumerus 88.4527 -32.8663 -48.8677
rradius 43.2372
rwrist -9.71533
rhand 2.11658 14.8988
rfingers 7.12502
rthumb 27.6161 -13.0945
lclavicle -2.5842e-014 5.88403e-014
lhumerus 95.0541 24.8763 50.131
lradius 42.223
lwrist -13.2209
lhand 10.6995 27.4275
lfingers 7.12502
lthumb 35.7895 53.7954
rfemur -18.0907 0.0822661 33.0049
rtibia 34.6643
rfoot -0.120129 2.83862
rtoes -54.5393
lfemur -25.9855 -4.44308 -17.8946
ltibia 39.2157
lfoot 4.05876 -0.781036
ltoes -44.3729
345
root -20.2905 19.0567 0.22721 77.2553 -83.1963 -127.55
lowerback 7.06004 0.537754 5.39733
upperback -2.93572 1.31969 1.3574
thorax -6.97023 0.426616 -1.77363
lowerneck 18.8064 2.24899 -14.5535
upperneck 32.7309 -4.99561 12.4706
head 7.93308 -4.90771 6.77691
rclavicle 1.31198e-014 -1.59028e-014
rhumerus 88.548 -33.1572 -48.5211
rradius 41.9752
rwrist -9.75112
rhand 2.23135 15.7227
rfingers 7.12502
rthumb 27.7258 -12.253
lclavicle 1.31198e-014 -1.59028e-014
lhumerus 95.2059 24.6432 50.2998
lradius 41.56
lwrist -13.3033
lhand 10.7407 27.0104
lfingers 7.12502
lthumb 35.8285 53.3689
rfemur -17.8802 -0.0700823 32.5645
rtibia 34.9344
rfoot -0.63551 2.64362
rtoes -54.7393
lfemur -25.7337 -4.29943 -18.5295
ltibia 39.5846
lfoot 3.6654 0.562261
ltoes -37.6728
346
root -20.3137 18.9958 0.228944 77.8228 -82.1163 -128.421
lowerback 7.45791 0.444867 6.69552
upperback -2.98954 1.36713 1.54311
thorax -7.24077 0.382783 -2.31558
lowerneck 18.9471 2.24615 -14.2333
upperneck 33.1689 -5.03579 12.2637
head 8.07734 -4.94853 6.65228
rclavicle 1.66979e-014 -3.29983e-014
rhumerus 89.7656 -32.8997 -48.8011
rradius 39.7762
rwrist -9.16597
rhand 2.04319 17.0126
rfingers 7.12502
rthumb 27.5459 -10.992
lclavicle 1.66979e-014 -3.29983e-014
lhumerus 95.7829 24.3842 50.5918
lradius 40.4779
lwrist -13.7553
lhand 10.8852 26.6188
lfingers 7.12502
lthumb 35.9655 52.9438
rfemur -17.2033 -0.567035 33.5537
rtibia 35.3557
rfoot -1.47077 1.84494
rtoes -54.9357
lfemur -24.9957 -3.88591 -17.6006
ltibia 39.7997
lfoot 3.52707 0.775927
ltoes -32.3778
347
root -20.3165 18.9476 0.200707 76.5631 -83.2019 -126.712
lowerback 6.97703 0.607714 5.51133
upperback -3.06986 1.40825 1.08106
thorax -7.05067 0.454344 -2.13845
lowerneck 18.9427 2.07942 -13.7003
upperneck 33.3993 -5.21419 12.0991
head 8.17794 -4.99984 6.49687
rclavicle -2.18663e-014 3.65764e-014
rhumerus 89.8579 -33.3203 -48.2978
rradius 38.7257
rwrist -9.48061
rhand 1.55037 17.7288
rfingers 7.12502
rthumb 27.0745 -10.3501
lclavicle -2.18663e-014 3.65764e-014
lhumerus 97.1504 23.7734 51.3664
lradius 39.0964
lwrist -14.6635
lhand 11.0922 26.3389
lfingers 7.12502
lthumb 36.1615 52.6156
rfemur -17.4037 -0.255692 32.2314
rtibia 35.6679
rfoot -2.5641 0.180539
rtoes -55.4396
lfemur -24.9003 -3.4572 -18.9521
ltibia 40.0006
lfoot 3.18849 0.727676
ltoes -32.6857
348
root -20.3052 18.8962 0.177749 76.3295 -83.7642 -126.257
lowerback 6.72791 0.663345 4.86068
upperback -3.07106 1.39512 0.925604
thorax -6.91539 0.478646 -1.93158
lowerneck 18.9936 2.1225 -13.7748
upperneck 33.4509 -5.20574 12.1626
head 8.19111 -5.01045 6.53641
rclavicle -3.53837e-014 -5.96354e-015
rhumerus 89.8415 -33.415 -47.9608
rradius 38.3896
rwrist -9.61474
rhand 1.19813 17.5084
rfingers 7.12502
rthumb 26.7375 -10.6224
lclavicle -3.53837e-014 -5.96354e-015
lhumerus 96.5109 23.6692 52.0386
lradius 39.2777
lwrist -15.2459
lhand 11.101 25.9492
lfingers 7.12502
lthumb 36.1698 52.2238
rfemur -17.2935 0.252475 31.4104
rtibia 35.8351
rfoot -1.97254 2.17877
rtoes -55.2995
lfemur -24.5751 -3.02513 -19.7382
ltibia 40.2852
lfoot 2.79071 0.656456
ltoes -35.1565
349
root -20.289 18.8383 0.168129 78.8143 -82.1322 -129.154
lowerback 7.29081 0.432229 6.40658
upperback -3.10862 1.31316 1.58079
thorax -7.2813 0.366771 -2.105
lowerneck 19.2665 2.4299 -14.173
upperneck 33.5706 -4.88662 12.068
head 8.16336 -4.93994 6.58094
rclavicle -9.54166e-015 -4.17448e-014
rhumerus 90.1579 -32.7789 -47.971
rradius 37.8308
rwrist -9.29728
rhand 1.00726 17.4378
rfingers 7.12502
rthumb 26.5548 -10.7207
lclavicle -9.54166e-015 -4.17448e-014
lhumerus 98.8884 23.2702 52.769
lradius 36.026
lwrist -16.544
lhand 11.0033 25.6771
lfingers 7.12502
lthumb 36.0773 51.9746
rfemur -16.5286 0.611103 32.8974
rtibia 36.2427
rfoot -1.46133 2.80188
rtoes -55.2609
lfemur -23.5654 -2.66441 -18.0666
ltibia 40.371
lfoot 2.69369 0.620082
ltoes -34.8406
350
root -20.2593 18.7966 0.138482 79.7437 -81.7523 -130.019
lowerback 7.16839 0.392827 6.57479
upperback -3.15408 1.27567 1.74114
thorax -7.26407 0.342384 -2.02287
lowerneck 19.3787 2.56145 -14.1085
upperneck 33.7023 -4.70824 11.9358
head 8.17036 -4.87204 6.52448
rclavicle -7.15625e-015 3.97569e-015
rhumerus 90.5678 -32.4241 -48.2573
rradius 37.027
rwrist -8.73272
rhand 0.864983 18.3638
rfingers 7.12502
rthumb 26.4186 -9.81526
lclavicle -7.15625e-015 3.97569e-015
lhumerus 99.6307 23.1031 52.8098
lradius 34.6513
lwrist -17.3648
lhand 10.7729 25.4733
lfingers 7.12502
lthumb 35.8591 51.8243
rfemur -16.2526 1.59667 33.0614
rtibia 36.5821
rfoot -0.617696 3.07498
rtoes -55.7412
lfemur -22.9682 -2.57631 -17.6661
ltibia 40.4726
lfoot 2.56474 0.650847
ltoes -38.057
351
root -20.2093 18.7499 0.132507 77.4101 -82.9233 -127.169
lowerback 6.56106 0.420323 5.82124
upperback -3.17641 1.16086 1.13578
thorax -6.94093 0.319491 -2.21705
lowerneck 19.1182 2.52953 -13.8238
upperneck 33.9852 -4.73044 11.9966
head 8.30784 -4.84987 6.5004
rclavicle -1.94809e-014 2.10712e-014
rhumerus 90.8926 -32.464 -48.6655
rradius 36.3566
rwrist -8.17152
rhand 0.667953 19.189
rfingers 7.12502
rthumb 26.23 -9.01825
lclavicle -1.94809e-014 2.10712e-014
lhumerus 99.8858 23.0179 52.5535
lradius 34.0965
lwrist -17.9089
lhand 10.4207 25.2993
lfingers 7.12502
lthumb 35.5253 51.731
rfemur -16.5349 2.34411 31.3597
rtibia 37.0252
rfoot 0.246251 3.47929
rtoes -57.2859
lfemur -22.6182 -2.73254 -19.1838
ltibia 40.477
lfoot 1.74932 1.13982
ltoes -41.3092
352
root -20.1533 18.6937 0.104717 79.2954 -82.6964 -128.939
lowerback 6.53128 0.450836 6.21556
upperback -3.15295 1.22119 0.8689
thorax -6.88355 0.327555 -2.72536
lowerneck 18.9964 2.43477 -13.153
upperneck 34.1289 -4.79446 12.0215
head 8.36947 -4.8045 6.38978
rclavicle 1.07344e-014 -2.78299e-015
rhumerus 90.5208 -32.7076 -48.7777
rradius 36.1692
rwrist -8.22048
rhand 0.314811 19.5302
rfingers 7.12502
rthumb 25.8919 -8.72685
lclavicle 1.07344e-014 -2.78299e-015
lhumerus 99.9931 22.9545 51.7719
lradius 33.7225
lwrist -18.0374
lhand 10.328 25.2431
lfingers 7.12502
lthumb 35.4374 51.6959
rfemur -16.4203 3.99291 31.4075
rtibia 37.5028
rfoot 2.3731 3.50285
rtoes -54.4454
lfemur -22.0001 -2.09824 -18.9794
ltibia 40.5642
lfoot 1.13911 1.05182
ltoes -39.6008
353
root -20.0844 18.64 0.0786064 80.8717 -82.605 -130.334
lowerback 6.40797 0.577373 6.53791
upperback -3.10453 1.39379 0.589388
thorax -6.73324 0.397987 -3.21821
lowerneck 18.8028 2.23651 -12.5525
upperneck 34.1807 -4.9529 11.9566
head 8.42341 -4.80177 6.25354
rclavicle -6.36111e-015 2.26615e-014
rhumerus 89.8831 -33.1671 -48.4372
rradius 36.1579
rwrist -8.45288
rhand -0.276418 19.8274
rfingers 7.12502
rthumb 25.3256 -8.51112
lclavicle -6.36111e-015 2.26615e-014
lhumerus 100.28 22.6597 51.3613
lradius 33.5277
lwrist -18.2172
lhand 10.2356 24.9379
lfingers 7.12502
lthumb 35.3498 51.4115
rfemur -16.5209 4.68226 31.2643
rtibia 38.2385
rfoot 2.36192 1.43386
rtoes -52.0385
lfemur -21.4579 -1.38828 -18.8868
ltibia 40.6406
lfoot 0.981772 0.603844
ltoes -32.6676
